<svg xmlns="http://www.w3.org/2000/svg" viewBox="0 0 720 720">
<defs><linearGradient id="g" x1="0" y1="0" x2="1" y2="1"><stop stop-color="#68d67b"/><stop offset="1" stop-color="#1e9a58"/></linearGradient><linearGradient id="p" x1="0" y1="0" x2="1" y2="1"><stop stop-color="#9478f4"/><stop offset="1" stop-color="#5c3dca"/></linearGradient><linearGradient id="t" x1="0" y1="0" x2="1" y2="1"><stop stop-color="#fff0a0"/><stop offset=".5" stop-color="#ffc53d"/><stop offset="1" stop-color="#dc9200"/></linearGradient><linearGradient id="s" x1="0" y1="0" x2="1" y2="1"><stop stop-color="#ffd9bf"/><stop offset="1" stop-color="#efaf88"/></linearGradient></defs>
<g opacity=".9"><circle cx="120" cy="210" r="14" fill="#59c878"/><circle cx="600" cy="205" r="14" fill="#8170eb"/><rect x="137" y="340" width="24" height="24" rx="4" fill="#ffc03a" transform="rotate(-8 149 352)"/><rect x="558" y="340" width="24" height="24" rx="4" fill="#43a7ee" transform="rotate(12 570 352)"/><path d="M180 142l10-22 10 22 22 10-22 10-10 22-10-22-22-10z" fill="#fff"/><path d="M520 145l9-20 9 20 20 9-20 9-9 20-9-20-20-9z" fill="#fff"/></g>
<ellipse cx="360" cy="660" rx="150" ry="22" fill="#234c38" opacity=".14"/>
<path d="M292 486h70v146c0 20-16 36-36 36s-34-16-34-36z" fill="url(#p)"/><path d="M358 486h70v146c0 20-15 36-34 36s-36-16-36-36z" fill="url(#p)"/><path d="M274 620h96v46c0 13-11 24-24 24h-76c-15 0-27-12-27-27 0-22 11-36 31-43z" fill="#253a56"/><path d="M350 620h96c20 7 31 21 31 43 0 15-12 27-27 27h-76c-13 0-24-11-24-24z" fill="#253a56"/><path d="M248 659h122v15c0 9-7 16-16 16h-93c-9 0-16-7-16-16z" fill="#fff"/><path d="M350 659h122l3 15c0 9-7 16-16 16h-93c-9 0-16-7-16-16z" fill="#fff"/>
<path d="M250 330c24-38 61-57 110-57s86 19 110 57c13 20 19 44 19 72v95c0 27-22 49-49 49H280c-27 0-49-22-49-49v-95c0-28 6-52 19-72z" fill="url(#g)"/><path d="M305 280c15 16 33 24 55 24s40-8 55-24l-9-36h-92z" fill="url(#s)"/><circle cx="360" cy="405" r="37" fill="#fff"/><path d="M360 374c15 17 20 37 15 60-17-6-28-17-33-31 3-13 9-23 18-29z" fill="#49ba69"/><path d="M360 375v56" stroke="#278955" stroke-width="5" stroke-linecap="round"/>
<ellipse cx="360" cy="205" rx="105" ry="100" fill="url(#s)"/><circle cx="258" cy="215" r="24" fill="url(#s)"/><circle cx="462" cy="215" r="24" fill="url(#s)"/><path d="M274 181c-3-60 35-105 89-105 57 0 91 42 88 101-19-13-34-32-43-53-31 31-76 50-134 57z" fill="#332820"/><path d="M280 176c17-39 45-61 86-66 33-3 59 10 78 39-29-2-53-11-71-28-23 25-54 44-93 55z" fill="#413329"/><ellipse cx="325" cy="213" rx="8" ry="11" fill="#2c2a2b"/><ellipse cx="395" cy="213" rx="8" ry="11" fill="#2c2a2b"/><circle cx="328" cy="209" r="2.5" fill="#fff"/><circle cx="398" cy="209" r="2.5" fill="#fff"/><path d="M334 249c15 17 37 17 52 0" fill="none" stroke="#a75b4e" stroke-width="6" stroke-linecap="round"/>
<path d="M286 340c-30-17-53-48-69-87-7-16 1-34 17-40 16-6 34 2 40 18 13 30 30 53 50 65z" fill="url(#s)"/><path d="M434 340c30-17 53-48 69-87 7-16-1-34-17-40-16-6-34 2-40 18-13 30-30 53-50 65z" fill="url(#s)"/>
<path d="M304 267h112v53c0 45-22 75-56 75s-56-30-56-75z" fill="url(#t)"/><path d="M304 277h-34c-22 0-40-18-40-40v-17h74v24h-48v4c0 18 15 33 33 33h15z" fill="url(#t)"/><path d="M416 277h34c22 0 40-18 40-40v-17h-74v24h48v4c0 18-15 33-33 33h-15z" fill="url(#t)"/><path d="M346 394h28v44h-28z" fill="#e1a11b"/><path d="M314 433h92c11 0 20 9 20 20v10H294v-10c0-11 9-20 20-20z" fill="url(#t)"/><path d="M330 461h60c11 0 20 9 20 20v7H310v-7c0-11 9-20 20-20z" fill="#d8910b"/><path d="M360 286l11 21 23 3-17 16 4 23-21-11-21 11 4-23-17-16 23-3z" fill="#fff3a6"/><ellipse cx="294" cy="302" rx="23" ry="18" transform="rotate(18 294 302)" fill="url(#s)"/><ellipse cx="426" cy="302" rx="23" ry="18" transform="rotate(-18 426 302)" fill="url(#s)"/>
</svg>